<?xml version="1.0" encoding="UTF-8"?><svg id="Warstwa_1" xmlns="http://www.w3.org/2000/svg" viewBox="0 0 300 300"><defs><style>.cls-1{fill:#fff;}.cls-2{fill:#333;}.cls-3{fill:#33c2d1;}</style></defs><circle class="cls-2" cx="150" cy="150" r="145"/><polygon class="cls-3" points="127.12 215.29 190.57 84.71 173.74 84.71 110.24 215.29 127.12 215.29"/><path class="cls-1" d="M114.99,182.38l-50.1-22.19,45.75-20.93c11.58-5.41,19.41-11.73,23.56-18.96,4.15-7.23,6.17-16.13,6.17-26.79l-.46-8.8h-4.75c-.35,3.79-2.27,7.23-5.86,10.21-3.54,3.03-9.81,6.67-18.66,10.97L23.69,146.13v8.59l86.15,38.22,5.16-10.57Z"/><path class="cls-1" d="M170.65,205.08c3.59-3.03,9.81-6.67,18.71-10.97l86.95-40.24v-8.59l-85.49-37.92-5.11,10.57,49.39,21.89-45.75,20.93c-11.58,5.41-19.46,11.73-23.56,18.96-4.15,7.23-6.22,16.18-6.22,26.79l.51,8.8h4.75c.3-3.79,2.27-7.23,5.81-10.21Z"/></svg>