<?xml version="1.0" encoding="UTF-8"?><svg id="Warstwa_1" xmlns="http://www.w3.org/2000/svg" viewBox="0 0 1070 400"><defs><style>.cls-1{fill:#fff;}</style></defs><g><polygon class="cls-1" points="308.56 217.63 194.41 162.17 194.41 177.86 308.56 233.37 308.56 217.63"/><path class="cls-1" d="M85.11,197.85c0-7.55-1.04-13.13-3.11-16.77-2.07-3.63-6.22-5.44-12.43-5.44h-2.22v-6.66h97.95c12.58,0,18.88,5.93,18.88,17.77v18.88h-6.66c0-9.18-2.33-15.92-6.99-20.21-4.67-4.3-11.59-6.44-20.77-6.44h-35.76v55.53h57.75v9.99h-57.75v61.08h37.98c8.44,0,15.47-1.89,21.1-5.66,5.63-3.78,10.29-10.33,14-19.65l5.99,2.22-6.44,17.55c-1.92,5.33-4.22,9.26-6.88,11.77-2.67,2.52-6.81,3.78-12.44,3.78H85.11v-117.71Z"/><path class="cls-1" d="M285.49,232.64l-20.7,46.72-19.52-42.66c-5.04-10.8-10.94-18.1-17.68-21.97-6.74-3.87-15.04-5.75-24.99-5.75l-8.2,.42v4.43c3.54,.33,6.74,2.12,9.52,5.47,2.83,3.3,6.22,9.15,10.23,17.4l37.53,81.09h8.01l35.64-80.33-9.85-4.81Z"/><path class="cls-1" d="M306.66,180.74c-2.83-3.35-6.22-9.15-10.23-17.44l-37.53-81.09h-8.01l-35.36,79.72,9.85,4.76,20.41-46.06,19.52,42.66c5.04,10.8,10.94,18.15,17.68,21.97,6.74,3.87,15.09,5.8,24.99,5.8l8.2-.47v-4.43c-3.54-.28-6.74-2.12-9.52-5.42Z"/><path class="cls-1" d="M323.33,309.68c-6.59-5.4-9.88-12.7-9.88-21.88,0-7.4,1.74-13.55,5.22-18.43,3.48-4.89,9.59-8.59,18.32-11.1,8.73-2.52,20.87-3.78,36.43-3.78h3.33c0-12.88-1.78-22.02-5.33-27.43-3.55-5.4-8.81-8.1-15.77-8.1-5.77,0-10.52,1.41-14.22,4.22-3.7,2.81-6.36,8.07-7.99,15.77h-12.22c0-5.03,.34-9.33,1-12.88,.66-3.55,2.18-6.66,4.55-9.33,4.59-5.18,15.7-7.77,33.32-7.77,14.81,0,26.1,3.89,33.87,11.66,7.77,7.78,11.66,19.44,11.66,34.98v59.96h-18.88l-7.77-9.99h-1.11c-1.33,2.08-3.41,4.15-6.22,6.22-5.04,4-11.85,6-20.43,6-12,0-21.29-2.7-27.88-8.11Zm42.53-4.89c2.22-1.25,4.36-3,6.44-5.22,1.92-2.07,3.41-4.52,4.45-7.33v-27.77h-3.33c-10.52,0-18.14,1.89-22.88,5.67-4.74,3.78-7.1,9.66-7.1,17.66,0,6.07,1.26,10.74,3.78,13.99,2.52,3.26,6.07,4.89,10.66,4.89,3.11,0,5.78-.63,8-1.89Z"/><path class="cls-1" d="M434.94,240.05c0-7.55-.99-13.14-3-16.77-2-3.62-6.11-5.44-12.32-5.44h-2.22v-6.66h21.99c5.03,0,8.99,.63,11.88,1.89,2.89,1.26,5.15,3.37,6.78,6.33,7.55-6.96,18.36-10.44,32.42-10.44s24.62,3.3,31.65,9.88c7.03,6.59,10.55,16.92,10.55,30.98v65.74h-28.87v-65.96c0-10.22-1.89-17.69-5.66-22.43-3.78-4.74-8.92-7.11-15.44-7.11-4.59,0-8.63,.63-12.1,1.89-3.48,1.26-6.26,2.92-8.33,5l.67,3.11c.59,1.78,.89,4.66,.89,8.66v76.85h-28.87v-75.51Z"/></g><g><path class="cls-1" d="M622.81,169.69c.69,1.2,1.47,2.67,2.32,4.4,.85,1.74,1.72,3.56,2.6,5.46,.88,1.91,1.76,3.85,2.63,5.82,.87,1.97,1.66,3.79,2.39,5.46,.73-1.67,1.51-3.49,2.37-5.46,.85-1.97,1.72-3.91,2.6-5.82,.88-1.91,1.75-3.73,2.6-5.46,.85-1.73,1.62-3.2,2.32-4.4h5.37c.29,2.4,.56,4.94,.82,7.64,.26,2.7,.49,5.46,.7,8.28,.21,2.82,.4,5.66,.58,8.52,.18,2.86,.33,5.64,.46,8.35h-5.87c-.13-3.82-.28-7.74-.46-11.78s-.44-7.95-.8-11.73c-.35,.73-.76,1.59-1.23,2.6s-.98,2.1-1.51,3.29c-.54,1.18-1.08,2.41-1.63,3.67-.55,1.26-1.09,2.48-1.61,3.67s-1,2.29-1.44,3.31c-.44,1.03-.82,1.9-1.14,2.63h-4.45c-.32-.73-.69-1.61-1.14-2.65-.44-1.04-.92-2.15-1.44-3.34-.52-1.18-1.06-2.4-1.61-3.67-.55-1.26-1.1-2.48-1.63-3.64-.54-1.17-1.04-2.26-1.51-3.29-.47-1.02-.88-1.88-1.23-2.58-.35,3.79-.62,7.7-.8,11.73s-.33,7.96-.46,11.78h-5.87c.13-2.71,.28-5.52,.46-8.42,.18-2.9,.37-5.78,.58-8.63s.44-5.62,.7-8.3c.26-2.68,.53-5.16,.82-7.43h5.51Z"/><path class="cls-1" d="M679.28,202.48c-.44-1.29-.9-2.57-1.38-3.83-.47-1.26-.93-2.55-1.38-3.88h-13.85c-.44,1.33-.89,2.63-1.35,3.9s-.91,2.55-1.35,3.81h-6.2c1.23-3.5,2.4-6.73,3.5-9.7,1.1-2.96,2.18-5.77,3.24-8.42s2.1-5.17,3.14-7.57c1.04-2.4,2.11-4.76,3.21-7.1h5.69c1.1,2.33,2.18,4.7,3.22,7.1,1.04,2.4,2.09,4.92,3.15,7.57s2.15,5.46,3.27,8.42c1.12,2.97,2.29,6.2,3.52,9.7h-6.44Zm-9.68-26.45c-.73,1.67-1.55,3.71-2.48,6.1-.93,2.4-1.9,5-2.91,7.81h10.79c-1.01-2.81-1.99-5.42-2.93-7.85-.95-2.43-1.77-4.45-2.46-6.06Z"/><path class="cls-1" d="M711.92,202.48c-1.07-1.8-2.27-3.73-3.6-5.8-1.32-2.07-2.7-4.15-4.12-6.25-1.42-2.1-2.86-4.13-4.33-6.1-1.47-1.97-2.86-3.75-4.19-5.32v23.47h-5.87v-32.79h4.87c1.26,1.33,2.62,2.89,4.07,4.71,1.45,1.81,2.91,3.7,4.38,5.65,1.47,1.96,2.89,3.92,4.26,5.89,1.37,1.97,2.59,3.81,3.67,5.51v-21.76h5.91v32.79h-5.06Z"/><path class="cls-1" d="M747.69,169.69v5.16h-10.08v27.63h-6.01v-27.63h-10.08v-5.16h26.16Z"/><path class="cls-1" d="M752.23,202.48v-32.79h21.05v5.06h-15.09v8.09h13.44v4.97h-13.44v9.6h16.23v5.06h-22.19Z"/><path class="cls-1" d="M802.05,202.48c-1.07-1.8-2.27-3.73-3.6-5.8-1.32-2.07-2.7-4.15-4.12-6.25-1.42-2.1-2.86-4.13-4.33-6.1-1.47-1.97-2.86-3.75-4.19-5.32v23.47h-5.87v-32.79h4.87c1.26,1.33,2.62,2.89,4.07,4.71,1.45,1.81,2.91,3.7,4.38,5.65,1.47,1.96,2.89,3.92,4.26,5.89,1.37,1.97,2.59,3.81,3.67,5.51v-21.76h5.91v32.79h-5.06Z"/><path class="cls-1" d="M814.96,169.69h5.96v32.79h-5.96v-32.79Z"/><path class="cls-1" d="M835.95,169.69c.69,1.2,1.47,2.67,2.32,4.4,.85,1.74,1.72,3.56,2.6,5.46,.88,1.91,1.76,3.85,2.63,5.82,.87,1.97,1.66,3.79,2.39,5.46,.73-1.67,1.51-3.49,2.37-5.46,.85-1.97,1.72-3.91,2.6-5.82,.88-1.91,1.75-3.73,2.6-5.46,.85-1.73,1.62-3.2,2.32-4.4h5.37c.29,2.4,.56,4.94,.82,7.64,.26,2.7,.49,5.46,.7,8.28,.21,2.82,.4,5.66,.58,8.52,.18,2.86,.33,5.64,.46,8.35h-5.87c-.13-3.82-.28-7.74-.46-11.78s-.44-7.95-.8-11.73c-.35,.73-.76,1.59-1.23,2.6s-.98,2.1-1.51,3.29c-.54,1.18-1.08,2.41-1.63,3.67-.55,1.26-1.09,2.48-1.61,3.67s-1,2.29-1.44,3.31c-.44,1.03-.82,1.9-1.14,2.63h-4.45c-.32-.73-.69-1.61-1.14-2.65-.44-1.04-.92-2.15-1.44-3.34-.52-1.18-1.06-2.4-1.61-3.67-.55-1.26-1.1-2.48-1.63-3.64-.54-1.17-1.04-2.26-1.51-3.29-.47-1.02-.88-1.88-1.23-2.58-.35,3.79-.62,7.7-.8,11.73s-.33,7.96-.46,11.78h-5.87c.13-2.71,.28-5.52,.46-8.42,.18-2.9,.37-5.78,.58-8.63s.44-5.62,.7-8.3c.26-2.68,.53-5.16,.82-7.43h5.51Z"/><path class="cls-1" d="M870.6,169.69h5.96v32.79h-5.96v-32.79Z"/><path class="cls-1" d="M884.42,202.48v-32.79h21.05v5.06h-15.09v8.09h13.44v4.97h-13.44v9.6h16.23v5.06h-22.19Z"/><path class="cls-1" d="M934.23,202.48c-1.07-1.8-2.27-3.73-3.6-5.8-1.32-2.07-2.7-4.15-4.12-6.25-1.42-2.1-2.86-4.13-4.33-6.1-1.47-1.97-2.86-3.75-4.19-5.32v23.47h-5.87v-32.79h4.87c1.26,1.33,2.62,2.89,4.07,4.71,1.45,1.81,2.91,3.7,4.38,5.65,1.47,1.96,2.89,3.92,4.26,5.89,1.37,1.97,2.59,3.81,3.67,5.51v-21.76h5.91v32.79h-5.06Z"/><path class="cls-1" d="M970,169.69v5.16h-10.08v27.63h-6.01v-27.63h-10.08v-5.16h26.16Z"/><path class="cls-1" d="M1003.88,186.06c0,2.81-.42,5.28-1.25,7.43-.84,2.15-1.97,3.94-3.41,5.37-1.44,1.44-3.11,2.52-5.04,3.24-1.92,.73-3.97,1.09-6.15,1.09s-4.23-.36-6.17-1.09c-1.94-.72-3.63-1.8-5.06-3.24-1.44-1.43-2.58-3.22-3.43-5.37-.85-2.14-1.28-4.62-1.28-7.43s.43-5.28,1.28-7.4,2.01-3.92,3.48-5.37c1.47-1.45,3.16-2.54,5.09-3.26,1.92-.73,3.96-1.09,6.1-1.09s4.18,.36,6.1,1.09,3.6,1.81,5.04,3.26c1.43,1.45,2.58,3.24,3.43,5.37s1.28,4.6,1.28,7.4Zm-25.6,0c0,1.8,.22,3.43,.66,4.9,.44,1.47,1.08,2.71,1.92,3.74,.84,1.02,1.85,1.82,3.05,2.39s2.56,.85,4.07,.85,2.82-.28,4.02-.85c1.2-.57,2.22-1.36,3.05-2.39,.84-1.03,1.47-2.27,1.92-3.74,.44-1.47,.66-3.1,.66-4.9s-.22-3.43-.66-4.9c-.44-1.47-1.08-2.71-1.92-3.74-.84-1.02-1.85-1.82-3.05-2.39-1.2-.57-2.54-.85-4.02-.85s-2.87,.28-4.07,.85-2.22,1.37-3.05,2.41c-.84,1.04-1.47,2.29-1.92,3.74-.44,1.45-.66,3.08-.66,4.87Z"/><path class="cls-1" d="M626.67,240.99c1.42-2.37,2.81-4.76,4.16-7.19,1.36-2.43,2.59-4.87,3.69-7.33h6.62c-1.77,3.34-3.6,6.66-5.51,9.96-1.91,3.3-3.95,6.62-6.13,9.96v12.87h-5.96v-12.77c-2.18-3.37-4.23-6.72-6.15-10.03-1.92-3.31-3.77-6.64-5.54-9.98h7c1.1,2.46,2.32,4.91,3.64,7.33s2.71,4.83,4.16,7.19Z"/><path class="cls-1" d="M664.18,254.8c2.14,0,3.71-.36,4.68-1.09,.98-.73,1.47-1.75,1.47-3.08,0-.79-.17-1.47-.5-2.04-.33-.57-.8-1.08-1.42-1.54-.61-.46-1.36-.88-2.25-1.28-.88-.39-1.89-.78-3.03-1.16-1.14-.41-2.23-.86-3.29-1.35-1.06-.49-1.99-1.1-2.79-1.82s-1.45-1.59-1.94-2.6c-.49-1.01-.73-2.22-.73-3.64,0-2.96,1.02-5.29,3.08-6.98,2.05-1.69,4.84-2.53,8.37-2.53,2.05,0,3.87,.23,5.46,.69,1.59,.46,2.85,.95,3.76,1.49l-1.85,4.83c-1.07-.6-2.25-1.06-3.52-1.37-1.28-.31-2.59-.47-3.95-.47-1.61,0-2.86,.33-3.76,.99-.9,.66-1.35,1.59-1.35,2.79,0,.73,.15,1.35,.45,1.87,.3,.52,.73,.99,1.28,1.4,.55,.41,1.2,.79,1.94,1.13,.74,.35,1.55,.68,2.44,.99,1.55,.57,2.93,1.14,4.14,1.73,1.21,.58,2.24,1.28,3.08,2.08,.83,.8,1.47,1.75,1.92,2.84,.44,1.09,.66,2.41,.66,3.95,0,2.96-1.05,5.26-3.15,6.88-2.1,1.62-5.17,2.44-9.2,2.44-1.36,0-2.59-.09-3.71-.26-1.12-.17-2.11-.39-2.98-.64-.87-.25-1.62-.51-2.25-.78-.63-.27-1.14-.51-1.51-.73l1.75-4.87c.85,.47,2,.95,3.45,1.42,1.45,.47,3.2,.71,5.25,.71Z"/><path class="cls-1" d="M681.78,259.25v-32.79h21.05v5.06h-15.09v8.09h13.44v4.97h-13.44v9.6h16.23v5.06h-22.19Z"/><path class="cls-1" d="M718.54,226.13c4.73,0,8.35,.87,10.86,2.6,2.51,1.74,3.76,4.38,3.76,7.95,0,4.45-2.19,7.46-6.58,9.04,.6,.73,1.28,1.61,2.03,2.65s1.53,2.17,2.32,3.38c.79,1.21,1.54,2.46,2.27,3.74,.73,1.28,1.37,2.53,1.94,3.76h-6.67c-.6-1.14-1.25-2.28-1.94-3.43-.69-1.15-1.4-2.27-2.11-3.36s-1.41-2.11-2.11-3.08c-.69-.96-1.34-1.82-1.94-2.58-.44,.03-.82,.05-1.14,.05h-3.78v12.4h-5.96v-32.31c1.45-.32,3-.53,4.64-.64,1.64-.11,3.11-.17,4.4-.17Zm.43,5.16c-1.26,0-2.43,.05-3.5,.14v10.6h2.6c1.45,0,2.73-.08,3.83-.24,1.1-.16,2.03-.44,2.77-.85,.74-.41,1.3-.96,1.68-1.66,.38-.69,.57-1.58,.57-2.65,0-1.01-.19-1.86-.57-2.55-.38-.69-.92-1.25-1.63-1.66-.71-.41-1.55-.7-2.53-.88-.98-.17-2.05-.26-3.22-.26Z"/><path class="cls-1" d="M748.73,259.25c-2.37-5.11-4.65-10.46-6.84-16.04-2.19-5.58-4.24-11.17-6.13-16.75h6.58c.76,2.21,1.53,4.46,2.32,6.77,.79,2.3,1.58,4.57,2.37,6.79,.79,2.22,1.58,4.38,2.37,6.46,.79,2.08,1.56,3.99,2.32,5.72,.73-1.73,1.49-3.63,2.28-5.7,.79-2.07,1.59-4.22,2.4-6.46,.81-2.24,1.6-4.51,2.4-6.81,.79-2.3,1.55-4.56,2.28-6.77h6.39c-1.93,5.58-3.99,11.17-6.17,16.75-2.18,5.58-4.46,10.93-6.84,16.04h-5.72Z"/><path class="cls-1" d="M771.68,226.46h5.96v32.79h-5.96v-32.79Z"/><path class="cls-1" d="M800.06,259.96c-2.46,0-4.67-.38-6.62-1.14-1.96-.76-3.61-1.87-4.97-3.34-1.36-1.47-2.4-3.26-3.12-5.37s-1.09-4.54-1.09-7.29,.42-5.17,1.25-7.29c.83-2.11,1.98-3.9,3.43-5.37,1.45-1.47,3.15-2.58,5.11-3.34,1.96-.76,4.05-1.14,6.29-1.14,1.36,0,2.59,.1,3.69,.31,1.1,.21,2.07,.43,2.89,.69,.82,.25,1.5,.52,2.03,.8,.54,.28,.91,.49,1.14,.62l-1.75,4.87c-.76-.47-1.84-.92-3.24-1.35-1.4-.43-2.93-.64-4.57-.64-1.42,0-2.74,.25-3.97,.73-1.23,.49-2.29,1.22-3.19,2.2-.9,.98-1.6,2.21-2.11,3.69-.5,1.48-.76,3.2-.76,5.16,0,1.73,.2,3.33,.59,4.78,.39,1.45,1,2.7,1.82,3.76,.82,1.06,1.86,1.88,3.12,2.46,1.26,.58,2.78,.88,4.54,.88,2.11,0,3.83-.21,5.16-.64,1.32-.43,2.35-.83,3.08-1.21l1.61,4.87c-.38,.25-.89,.5-1.54,.76-.65,.25-1.41,.5-2.29,.73-.88,.24-1.88,.43-2.98,.57-1.1,.14-2.29,.21-3.55,.21Z"/><path class="cls-1" d="M815.67,226.46h5.96v32.79h-5.96v-32.79Z"/><path class="cls-1" d="M859.96,242.83c0,2.81-.42,5.28-1.25,7.43-.84,2.15-1.97,3.94-3.41,5.37-1.44,1.44-3.11,2.52-5.04,3.24-1.92,.73-3.97,1.09-6.15,1.09s-4.23-.36-6.17-1.09c-1.94-.72-3.63-1.8-5.06-3.24-1.44-1.43-2.58-3.22-3.43-5.37-.85-2.14-1.28-4.62-1.28-7.43s.43-5.28,1.28-7.4,2.01-3.92,3.48-5.37c1.47-1.45,3.16-2.54,5.09-3.26,1.92-.73,3.96-1.09,6.1-1.09s4.18,.36,6.1,1.09,3.6,1.81,5.04,3.26c1.43,1.45,2.58,3.24,3.43,5.37s1.28,4.6,1.28,7.4Zm-25.6,0c0,1.8,.22,3.43,.66,4.9,.44,1.47,1.08,2.71,1.92,3.74,.84,1.02,1.85,1.82,3.05,2.39s2.56,.85,4.07,.85,2.82-.28,4.02-.85c1.2-.57,2.22-1.36,3.05-2.39,.84-1.03,1.47-2.27,1.92-3.74,.44-1.47,.66-3.1,.66-4.9s-.22-3.43-.66-4.9c-.44-1.47-1.08-2.71-1.92-3.74-.84-1.02-1.85-1.82-3.05-2.39-1.2-.57-2.54-.85-4.02-.85s-2.87,.28-4.07,.85-2.22,1.37-3.05,2.41c-.84,1.04-1.47,2.29-1.92,3.74-.44,1.45-.66,3.08-.66,4.87Z"/><path class="cls-1" d="M624.92,282.91c4.76,0,8.41,.87,10.95,2.6,2.54,1.74,3.81,4.45,3.81,8.14,0,1.92-.34,3.57-1.02,4.94-.68,1.37-1.66,2.49-2.96,3.36-1.29,.87-2.87,1.51-4.73,1.92-1.86,.41-3.99,.62-6.39,.62h-2.98v11.54h-5.96v-32.31c1.39-.32,2.93-.53,4.61-.64,1.69-.11,3.24-.17,4.66-.17Zm.43,5.16c-1.51,0-2.76,.05-3.74,.14v11.17h2.89c2.87,0,5.08-.4,6.62-1.21,1.54-.8,2.32-2.33,2.32-4.57,0-1.07-.21-1.97-.62-2.7-.41-.73-.98-1.29-1.7-1.7-.73-.41-1.58-.7-2.58-.88-.99-.17-2.06-.26-3.19-.26Z"/><path class="cls-1" d="M645.12,316.02v-32.79h21.05v5.06h-15.09v8.09h13.44v4.97h-13.44v9.6h16.23v5.06h-22.19Z"/><path class="cls-1" d="M681.88,282.91c4.73,0,8.35,.87,10.86,2.6,2.51,1.74,3.76,4.38,3.76,7.95,0,4.45-2.19,7.46-6.58,9.04,.6,.73,1.28,1.61,2.03,2.65s1.53,2.17,2.32,3.38c.79,1.21,1.54,2.46,2.27,3.74,.73,1.28,1.37,2.53,1.94,3.76h-6.67c-.6-1.14-1.25-2.28-1.94-3.43-.69-1.15-1.4-2.27-2.11-3.36s-1.41-2.11-2.11-3.08c-.69-.96-1.34-1.82-1.94-2.58-.44,.03-.82,.05-1.14,.05h-3.78v12.4h-5.96v-32.31c1.45-.32,3-.53,4.64-.64,1.64-.11,3.11-.17,4.4-.17Zm.43,5.16c-1.26,0-2.43,.05-3.5,.14v10.6h2.6c1.45,0,2.73-.08,3.83-.24,1.1-.16,2.03-.44,2.77-.85,.74-.41,1.3-.96,1.68-1.66,.38-.69,.57-1.58,.57-2.65,0-1.01-.19-1.86-.57-2.55-.38-.69-.92-1.25-1.63-1.66-.71-.41-1.55-.7-2.53-.88-.98-.17-2.05-.26-3.22-.26Z"/><path class="cls-1" d="M711.07,311.58c2.14,0,3.71-.36,4.68-1.09,.98-.73,1.47-1.75,1.47-3.08,0-.79-.17-1.47-.5-2.04-.33-.57-.8-1.08-1.42-1.54-.61-.46-1.36-.88-2.25-1.28-.88-.39-1.89-.78-3.03-1.16-1.14-.41-2.23-.86-3.29-1.35-1.06-.49-1.99-1.1-2.79-1.82s-1.45-1.59-1.94-2.6c-.49-1.01-.73-2.22-.73-3.64,0-2.96,1.02-5.29,3.08-6.98,2.05-1.69,4.84-2.53,8.37-2.53,2.05,0,3.87,.23,5.46,.69,1.59,.46,2.85,.95,3.76,1.49l-1.85,4.83c-1.07-.6-2.25-1.06-3.52-1.37-1.28-.31-2.59-.47-3.95-.47-1.61,0-2.86,.33-3.76,.99-.9,.66-1.35,1.59-1.35,2.79,0,.73,.15,1.35,.45,1.87,.3,.52,.73,.99,1.28,1.4,.55,.41,1.2,.79,1.94,1.13,.74,.35,1.55,.68,2.44,.99,1.55,.57,2.93,1.14,4.14,1.73,1.21,.58,2.24,1.28,3.08,2.08,.83,.8,1.47,1.75,1.92,2.84,.44,1.09,.66,2.41,.66,3.95,0,2.96-1.05,5.26-3.15,6.88-2.1,1.62-5.17,2.44-9.2,2.44-1.36,0-2.59-.09-3.71-.26-1.12-.17-2.11-.39-2.98-.64-.87-.25-1.62-.51-2.25-.78-.63-.27-1.14-.51-1.51-.73l1.75-4.87c.85,.47,2,.95,3.45,1.42,1.45,.47,3.2,.71,5.25,.71Z"/><path class="cls-1" d="M759.14,299.61c0,2.81-.42,5.28-1.25,7.43-.84,2.15-1.97,3.94-3.41,5.37-1.44,1.44-3.11,2.52-5.04,3.24-1.92,.73-3.97,1.09-6.15,1.09s-4.23-.36-6.17-1.09c-1.94-.72-3.63-1.8-5.06-3.24-1.44-1.43-2.58-3.22-3.43-5.37-.85-2.14-1.28-4.62-1.28-7.43s.43-5.28,1.28-7.4,2.01-3.92,3.48-5.37c1.47-1.45,3.16-2.54,5.09-3.26,1.92-.73,3.96-1.09,6.1-1.09s4.18,.36,6.1,1.09,3.6,1.81,5.04,3.26c1.43,1.45,2.58,3.24,3.43,5.37s1.28,4.6,1.28,7.4Zm-25.6,0c0,1.8,.22,3.43,.66,4.9,.44,1.47,1.08,2.71,1.92,3.74,.84,1.02,1.85,1.82,3.05,2.39s2.56,.85,4.07,.85,2.82-.28,4.02-.85c1.2-.57,2.22-1.36,3.05-2.39,.84-1.03,1.47-2.27,1.92-3.74,.44-1.47,.66-3.1,.66-4.9s-.22-3.43-.66-4.9c-.44-1.47-1.08-2.71-1.92-3.74-.84-1.02-1.85-1.82-3.05-2.39-1.2-.57-2.54-.85-4.02-.85s-2.87,.28-4.07,.85-2.22,1.37-3.05,2.41c-.84,1.04-1.47,2.29-1.92,3.74-.44,1.45-.66,3.08-.66,4.87Z"/><path class="cls-1" d="M787.76,316.02c-1.07-1.8-2.27-3.73-3.6-5.8-1.32-2.07-2.7-4.15-4.12-6.25-1.42-2.1-2.86-4.13-4.33-6.1-1.47-1.97-2.86-3.75-4.19-5.32v23.47h-5.87v-32.79h4.87c1.26,1.33,2.62,2.89,4.07,4.71,1.45,1.81,2.91,3.7,4.38,5.65,1.47,1.96,2.89,3.92,4.26,5.89,1.37,1.97,2.59,3.81,3.67,5.51v-21.76h5.91v32.79h-5.06Z"/><path class="cls-1" d="M822.49,316.02c-.44-1.29-.9-2.57-1.38-3.83-.47-1.26-.93-2.55-1.38-3.88h-13.85c-.44,1.33-.89,2.63-1.35,3.9s-.91,2.55-1.35,3.81h-6.2c1.23-3.5,2.4-6.73,3.5-9.7,1.1-2.96,2.18-5.77,3.24-8.42s2.1-5.17,3.14-7.57c1.04-2.4,2.11-4.76,3.21-7.1h5.69c1.1,2.33,2.18,4.7,3.22,7.1,1.04,2.4,2.09,4.92,3.15,7.57s2.15,5.46,3.27,8.42c1.12,2.97,2.29,6.2,3.52,9.7h-6.44Zm-9.68-26.45c-.73,1.67-1.55,3.71-2.48,6.1-.93,2.4-1.9,5-2.91,7.81h10.79c-1.01-2.81-1.99-5.42-2.93-7.85-.95-2.43-1.77-4.45-2.46-6.06Z"/><path class="cls-1" d="M853.76,310.87v5.16h-20.72v-32.79h5.96v27.63h14.76Z"/><path class="cls-1" d="M858.3,283.24h5.96v32.79h-5.96v-32.79Z"/><path class="cls-1" d="M893.88,287.64c-1.04,1.14-2.3,2.61-3.78,4.42-1.48,1.81-3.01,3.78-4.59,5.91-1.58,2.13-3.13,4.32-4.66,6.58-1.53,2.25-2.88,4.39-4.04,6.41h17.6v5.06h-24.79v-3.74c.63-1.17,1.36-2.44,2.2-3.81,.84-1.37,1.73-2.78,2.67-4.23,.95-1.45,1.93-2.92,2.96-4.4,1.02-1.48,2.04-2.91,3.05-4.28,1.01-1.37,1.99-2.68,2.96-3.93,.96-1.25,1.87-2.36,2.72-3.34h-15.75v-5.06h23.47v4.4Z"/><path class="cls-1" d="M922.45,316.02c-.44-1.29-.9-2.57-1.38-3.83-.47-1.26-.93-2.55-1.38-3.88h-13.85c-.44,1.33-.89,2.63-1.35,3.9s-.91,2.55-1.35,3.81h-6.2c1.23-3.5,2.4-6.73,3.5-9.7,1.1-2.96,2.18-5.77,3.24-8.42s2.1-5.17,3.14-7.57c1.04-2.4,2.11-4.76,3.21-7.1h5.69c1.1,2.33,2.18,4.7,3.22,7.1,1.04,2.4,2.09,4.92,3.15,7.57s2.15,5.46,3.27,8.42c1.12,2.97,2.29,6.2,3.52,9.7h-6.44Zm-9.68-26.45c-.73,1.67-1.55,3.71-2.48,6.1-.93,2.4-1.9,5-2.91,7.81h10.79c-1.01-2.81-1.99-5.42-2.93-7.85-.95-2.43-1.77-4.45-2.46-6.06Z"/><path class="cls-1" d="M960.82,299.61c0,2.84-.44,5.31-1.32,7.4-.88,2.1-2.14,3.85-3.76,5.25-1.62,1.4-3.58,2.45-5.87,3.12-2.29,.68-4.82,1.02-7.59,1.02-1.32,0-2.82-.06-4.49-.17-1.67-.11-3.26-.34-4.78-.69v-31.84c1.51-.35,3.12-.57,4.83-.66s3.22-.14,4.54-.14c2.74,0,5.25,.32,7.52,.97,2.27,.65,4.22,1.66,5.84,3.03s2.88,3.11,3.76,5.2c.88,2.1,1.32,4.6,1.32,7.5Zm-21.86,11.5c.35,.03,.8,.05,1.37,.07,.57,.02,1.34,.02,2.32,.02,4.01,0,6.99-1.02,8.97-3.05,1.97-2.04,2.96-4.88,2.96-8.54s-.96-6.58-2.89-8.56c-1.92-1.99-4.9-2.98-8.94-2.98-1.77,0-3.03,.05-3.78,.14v22.9Z"/><path class="cls-1" d="M997.82,299.61c0,2.81-.42,5.28-1.25,7.43-.84,2.15-1.97,3.94-3.41,5.37-1.44,1.44-3.11,2.52-5.04,3.24-1.92,.73-3.97,1.09-6.15,1.09s-4.23-.36-6.17-1.09c-1.94-.72-3.63-1.8-5.06-3.24-1.44-1.43-2.58-3.22-3.43-5.37-.85-2.14-1.28-4.62-1.28-7.43s.43-5.28,1.28-7.4,2.01-3.92,3.48-5.37c1.47-1.45,3.16-2.54,5.09-3.26,1.92-.73,3.96-1.09,6.1-1.09s4.18,.36,6.1,1.09,3.6,1.81,5.04,3.26c1.43,1.45,2.58,3.24,3.43,5.37s1.28,4.6,1.28,7.4Zm-25.6,0c0,1.8,.22,3.43,.66,4.9,.44,1.47,1.08,2.71,1.92,3.74,.84,1.02,1.85,1.82,3.05,2.39s2.56,.85,4.07,.85,2.82-.28,4.02-.85c1.2-.57,2.22-1.36,3.05-2.39,.84-1.03,1.47-2.27,1.92-3.74,.44-1.47,.66-3.1,.66-4.9s-.22-3.43-.66-4.9c-.44-1.47-1.08-2.71-1.92-3.74-.84-1.02-1.85-1.82-3.05-2.39-1.2-.57-2.54-.85-4.02-.85s-2.87,.28-4.07,.85-2.22,1.37-3.05,2.41c-.84,1.04-1.47,2.29-1.92,3.74-.44,1.45-.66,3.08-.66,4.87Z"/></g><rect class="cls-1" x="574" y="169" width="5" height="147"/></svg>